<svg xmlns="http://www.w3.org/2000/svg" xmlns:xlink="http://www.w3.org/1999/xlink" version="1.1" x="0px" y="0px" viewBox="0 0 98 122.5" style="enable-background:new 0 0 98 98;" xml:space="preserve"><style type="text/css">
	.st0{fill-rule:evenodd;clip-rule:evenodd;}
</style><path class="st0" d="M72.747,38.826h9.287v44.359h-9.287V38.826z M54.912,83.185h9.287V47.07h-9.287V83.185z M37.078,83.185h9.287  V58.178h-9.287V83.185z M49.745,29.817c0.225-0.536,0.226-1.131,0.004-1.668c-0.452-1.094-1.744-1.633-2.839-1.184  c-0.642,0.263-1.29,0.514-1.936,0.767l-5.695,2.231c-0.102,0.04-0.218,0.022-0.303-0.048l-0.39-0.324  c-0.996-0.828-1.994-1.661-3.046-2.418c-0.824-0.593-1.741-1.174-2.741-1.408c-1.852-0.433-3.666,0.565-5.245,1.407l-0.481,0.256  c-1.445,0.771-2.904,1.517-4.388,2.212l-0.022,0.01l-0.021,0.011c-0.424,0.228-0.975,0.918-1.297,1.302l-0.184,0.22  c-0.727,0.868-1.454,1.736-2.174,2.609c-0.492,0.598-0.981,1.198-1.47,1.798c-0.698,0.856-1.395,1.713-2.103,2.562l-0.052,0.063  l-0.146,0.263l-0.025,0.075c-0.349,1.039,0.135,2.18,1.123,2.652c1.12,0.535,2.144-0.184,2.886-1.001l5.151-5.945  c0.069-0.08,0.132-0.163,0.193-0.244l0.134-0.174c0.017-0.021,0.043-0.045,0.074-0.065l1.136-0.706  c0.048-0.03,0.102-0.045,0.158-0.045c0.062,0,0.123,0.019,0.174,0.055c0.099,0.07,0.145,0.192,0.119,0.31  c-0.089,0.403-0.168,0.809-0.239,1.216l-0.047,0.268c-0.284,1.604-0.556,3.212-0.678,4.839c-0.173,2.294-0.117,4.604-0.038,6.9  c0,0.008,0,0.016,0,0.024l-0.021,0.578c-0.039,1.104-0.078,2.216-0.218,3.313c-0.003,0.027-0.01,0.054-0.021,0.079l-4.598,10.676  c-0.23,0.533-0.235,1.128-0.02,1.668c0.215,0.54,0.629,0.97,1.164,1.199c1.073,0.459,2.372-0.048,2.85-1.111l5.429-10.935  l0.018-0.051c0.184-0.526,0.21-1.361,0.241-1.932l0.02-0.371c0.027-0.513,0.054-1.44,0.217-1.921  c0.042-0.122,0.156-0.204,0.285-0.204c2.632,0.015,5.268,0.119,7.884,0.398c0.113,0.012,0.208,0.086,0.249,0.192l1.827,4.808  c0.426,1.12,1.682,1.693,2.804,1.271c0.545-0.205,0.979-0.615,1.218-1.145c0.238-0.529,0.258-1.123,0.052-1.665l-2.34-6.158  l-0.01-0.022c-0.004-0.01-0.009-0.02-0.011-0.025c-0.275-0.725-0.924-1.252-1.696-1.372c-2.088-0.326-4.219-0.458-6.328-0.546  c-0.161-0.007-0.288-0.139-0.288-0.301c0-2.338,0.07-4.678,0.474-6.986c0.178-1.019,0.418-2.057,0.796-3.022  c0.035-0.09,0.111-0.158,0.205-0.182c0.093-0.024,0.192-0.001,0.267,0.06l1.538,1.273c0.625,0.518,1.485,0.643,2.225,0.334  l6.792-2.66c0.744-0.291,1.487-0.582,2.226-0.887C49.1,30.77,49.521,30.351,49.745,29.817z M34.32,23.071  c2.17,0,3.934-1.765,3.934-3.934c0-2.17-1.764-3.934-3.934-3.934c-2.17,0-3.934,1.765-3.934,3.934  C30.386,21.307,32.15,23.071,34.32,23.071z M19.243,83.185h9.286V69.459h-9.286V83.185z M77.753,25.52  c0.053-0.067,0.133-0.107,0.219-0.113c0.084-0.005,0.167,0.028,0.226,0.086l2.803,2.768l1.92-13.447l-13.358,2.153l3.241,3.2  c0.097,0.096,0.117,0.245,0.049,0.363c-4.246,7.386-11.919,12.268-19.24,16.201l-4.388,2.358l4.926-0.741  C64.04,36.861,71.385,33.476,77.753,25.52z"/><text x="0" y="113" fill="#000000" font-size="5px" font-weight="bold" font-family="'Helvetica Neue', Helvetica, Arial-Unicode, Arial, Sans-serif">Created by Good Wife</text><text x="0" y="118" fill="#000000" font-size="5px" font-weight="bold" font-family="'Helvetica Neue', Helvetica, Arial-Unicode, Arial, Sans-serif">from the Noun Project</text></svg>