<svg xmlns="http://www.w3.org/2000/svg" xmlns:xlink="http://www.w3.org/1999/xlink" version="1.1" x="0px" y="0px" viewBox="0 0 100 125" enable-background="new 0 0 100 100" xml:space="preserve"><g><g><path d="M47.026,53.705c0-6.187-5.032-11.22-11.219-11.22s-11.219,5.033-11.219,11.22c0,6.188,5.033,11.219,11.219,11.219    S47.026,59.893,47.026,53.705z M28.882,59.771c-1.424-1.625-2.294-3.744-2.294-6.066c0-2.324,0.871-4.442,2.294-6.065V59.771z     M34.808,62.867c-1.439-0.156-2.775-0.648-3.939-1.391c0.002-0.023,0.014-0.043,0.014-0.066V46c0-0.024-0.012-0.044-0.014-0.067    c1.164-0.742,2.5-1.234,3.939-1.391v5.324c-1.709,0.447-2.98,1.991-2.98,3.838s1.271,3.391,2.98,3.838V62.867z M33.828,53.705    c0-1.09,0.888-1.979,1.98-1.979c1.092,0,1.98,0.889,1.98,1.979c0,1.092-0.888,1.98-1.98,1.98    C34.715,55.686,33.828,54.797,33.828,53.705z M40.377,61.701c-1.075,0.617-2.281,1.027-3.57,1.166v-5.324    c1.709-0.447,2.98-1.99,2.98-3.838s-1.271-3.392-2.98-3.838v-5.324c1.289,0.14,2.495,0.55,3.57,1.167V61.701z M42.377,47.249    c1.636,1.665,2.649,3.943,2.649,6.457c0,2.512-1.013,4.791-2.649,6.455V47.249z M50,8.912c1.654,0,3-1.38,3-3.077    c0-1.697-1.346-3.077-3-3.077s-3,1.38-3,3.077C47,7.532,48.346,8.912,50,8.912z M50,4.757c0.551,0,1,0.483,1,1.077    c0,0.594-0.448,1.077-1,1.077c-0.551,0-1-0.483-1-1.077C49,5.241,49.449,4.757,50,4.757z M64.19,42.486    c-6.188,0-11.219,5.032-11.219,11.219c0,6.184,5.028,11.213,11.213,11.217c0.002,0,0.004,0.002,0.006,0.002    s0.004-0.002,0.006-0.002c6.184-0.004,11.212-5.033,11.212-11.217C75.408,47.52,70.376,42.486,64.19,42.486z M57.62,60.16    c-1.637-1.664-2.648-3.943-2.648-6.455s1.014-4.791,2.648-6.456V60.16z M63.19,62.865c-1.289-0.139-2.496-0.549-3.57-1.166V45.71    c1.074-0.617,2.281-1.027,3.57-1.167v5.323c-1.709,0.447-2.979,1.991-2.979,3.838s1.271,3.391,2.979,3.838V62.865z M64.19,55.686    c-1.092,0-1.979-0.889-1.979-1.98c0-1.09,0.888-1.979,1.979-1.979c1.091,0,1.979,0.889,1.979,1.979    C66.17,54.797,65.282,55.686,64.19,55.686z M69.127,61.475c-1.163,0.742-2.499,1.234-3.938,1.391v-5.322h0.002    c1.709-0.447,2.979-1.99,2.979-3.838s-1.271-3.392-2.979-3.838v-5.323c1.438,0.156,2.774,0.648,3.938,1.391    c-0.002,0.023-0.014,0.043-0.014,0.066v15.41C69.114,61.434,69.126,61.453,69.127,61.475z M71.115,59.77V47.641    c1.423,1.623,2.293,3.742,2.293,6.064S72.538,58.146,71.115,59.77z M86.862,58.875l-2.512-0.359v-1.77h2.26c0.554,0,1-0.447,1-1    V43.682c0-0.538-0.424-0.979-0.961-1l-0.936-0.036C85.073,9.445,54.128,0.5,49.917,0.5c-4.211,0-35.161,8.947-35.798,42.151    l-0.771,0.03c-0.537,0.021-0.962,0.462-0.962,1v12.064c0,0.553,0.448,1,1,1h2.262v1.77l-2.512,0.359    c-0.499,0.072-0.931,0.553-0.847,1.133l1.717,11.941c0.072,0.496,0.551,0.928,1.133,0.846l2.265-0.326l0.124,4.008h-1.055    c-0.552,0-1,0.445-1,1v11.176c0,0.553,0.448,1,1,1h3.086c0.552,0,1-0.447,1-1v-1.023h6.637C31.931,95.559,39.25,99.5,50,99.5    c10.562,0,18.084-3.973,22.802-11.871h6.637v1.023c0,0.553,0.447,1,1,1h3.086c0.554,0,1-0.447,1-1V77.477c0-0.553-0.446-1-1-1    H82.47l0.127-4.006l2.264,0.326c0.603,0.086,1.063-0.361,1.134-0.848l1.717-11.939C87.786,59.461,87.412,58.955,86.862,58.875z     M85.61,54.746h-2.998c0-4.746-0.143-7.368-0.473-10.237l3.471,0.133V54.746z M31.641,10.935C39.763,4.608,48.34,2.5,49.917,2.5    c1.577,0,10.155,2.109,18.277,8.435c6.937,5.401,15.152,15.258,15.517,31.635l-1.833-0.07C79.335,24.923,70.047,9.134,50,9.134    c-20.047,0-29.335,15.789-31.878,33.365l-1.998,0.076C16.485,26.194,24.704,16.336,31.641,10.935z M80.619,52.156h-1.288    c-0.459-9.194-7.158-16.013-15.967-16.013c-5.254,0-10.148,2.409-13.366,6.5c-3.216-4.09-8.111-6.499-13.366-6.499    c-8.809,0-15.507,6.818-15.966,16.012h-1.287C19.642,32.134,27.785,11.134,50,11.134C72.215,11.134,80.358,32.134,80.619,52.156z     M14.387,54.746V44.644l3.474-0.133c-0.33,2.869-0.473,5.489-0.473,10.236H14.387z M18.559,87.652h-1.086v-9.176h1.086V87.652z     M18.225,70.33l-2.381,0.344l-1.432-9.961l3.26-0.498c0.335,3.994,0.916,7.584,1.595,10.668    C19.134,70.611,18.779,70.256,18.225,70.33z M19.558,76.477h-0.031l-0.158-5.145c0.64,2.824,1.35,5.227,2,7.145h-0.811v-1    C20.558,76.924,20.109,76.477,19.558,76.477z M20.559,85.627v-5.15h1.527c0.775,2.045,1.356,3.211,1.431,3.357    c0.149,0.295,0.466,0.547,0.891,0.547c0,0,0,0,0.001,0h1.065c0.196,0.414,0.401,0.83,0.615,1.246H20.559z M49.083,97.473    c-12.748-0.27-18.109-6.535-21.384-13.09h13.638v2.246c0,0.553,0.448,1,1,1h6.746V97.473z M43.336,85.629v-3.393h13.326v3.393    H43.336z M43.336,80.238v-0.555h13.326v0.555H43.336z M51.082,97.467v-9.838h6.58c0.553,0,1-0.447,1-1v-2.246H72.3    C69.036,90.912,63.71,97.146,51.082,97.467z M58.662,82.383v-3.699c0-0.553-0.447-1-1-1h-6.58v-3.969c0-1.354-2-1.354-2,0v3.969    h-6.746c-0.552,0-1,0.447-1,1v3.699H25.043c-1.113-2.461-5.479-13.072-5.666-28.229h2.24c0.002,0,0.003,0.002,0.005,0.002    c0.552,0,1-0.447,1-1c0-8.56,6.023-15.013,14.011-15.013c4.96,0,9.558,2.431,12.366,6.511v23.396l-4.958,4.957    c-1.017,1.016,0.594,2.236,1.414,1.414L50,69.879l4.542,4.543c0.826,0.826,2.435-0.391,1.414-1.414l-4.957-4.957V44.653    c2.811-4.08,7.408-6.511,12.365-6.511c7.986,0,14.011,6.454,14.011,15.012c0,0.553,0.447,1,1,1h2.247    c-0.188,15.156-4.555,25.768-5.666,28.229H58.662z M79.438,85.629h-5.53c0.214-0.418,0.419-0.834,0.614-1.246h1.067    c0.414,0,0.745-0.258,0.892-0.547c0.076-0.146,0.656-1.314,1.432-3.357h1.525V85.629z M80.47,76.477h-0.031c-0.553,0-1,0.447-1,1    v1h-0.81c0.651-1.92,1.361-4.32,2.002-7.146L80.47,76.477z M82.524,78.477v9.176h-1.086v-9.176H82.524z M84.155,70.674    l-2.381-0.344c-0.522-0.074-0.896,0.26-1.043,0.555c0.68-3.086,1.261-6.674,1.596-10.668l3.26,0.496L84.155,70.674z"/></g></g><text x="0" y="115" fill="#000000" font-size="5px" font-weight="bold" font-family="'Helvetica Neue', Helvetica, Arial-Unicode, Arial, Sans-serif">Created by Julien Duquesnoy</text><text x="0" y="120" fill="#000000" font-size="5px" font-weight="bold" font-family="'Helvetica Neue', Helvetica, Arial-Unicode, Arial, Sans-serif">from the Noun Project</text></svg>