<svg xmlns="http://www.w3.org/2000/svg" xmlns:xlink="http://www.w3.org/1999/xlink" version="1.1" x="0px" y="0px" viewBox="0 0 100 125" enable-background="new 0 0 100 100" xml:space="preserve"><path d="M93.446,61.789l-0.824-0.029l-11.819-21.85c0.727,0.019,1.448-0.022,2.142-0.166c2.023-0.42,3.878-1.669,4.718-3.438  c0.706-1.487,1.265-5.136-1.526-5.328c-1.215-0.084-2.336,0.688-2.404,1.819c-0.036,0.607,0.08,1.245-0.147,1.808  c-0.269,0.667-0.991,1.097-1.75,1.231s-1.556,0.011-2.32-0.164c-6.412-1.467-9.9-7.558-15.033-11.037  c-4.011-2.718-7.525-2.739-8.782-2.637c-0.747-4.014-2.594-6.86-4.759-6.86c-1.566,0-2.966,1.49-3.905,3.832  c-1.537-0.595-3.654-1.093-6.357-0.948c-6.192,0.332-12.322,3.751-18.572,1.7c-0.745-0.245-1.491-0.551-2.072-1.057  c-0.582-0.506-0.978-1.247-0.865-1.957c0.096-0.599,0.525-1.086,0.807-1.625c0.525-1.004-0.038-2.243-1.121-2.799  c-2.489-1.275-3.893,2.139-4.055,3.777c-0.193,1.948,0.752,3.976,2.268,5.378c1.113,1.03,2.537,1.762,4.058,2.246L7.428,45.48  l-0.825-0.025c-0.457-0.014-0.813,0.386-0.761,0.84c0.575,5.03,7.437,9.169,15.942,9.424s15.603-3.464,16.478-8.451  c0.079-0.45-0.253-0.871-0.71-0.885l-0.824-0.025L24.673,24.354c0.607,0.042,1.21,0.061,1.79,0.033  c3.3-0.158,6.421-1.29,9.753-1.236c3.521,0.057,7.142,1.679,9.65,4.126c0.192,3.287,1.081,6.111,2.347,7.801v44.657H33.836  c-1.179,0-2.144,0.965-2.144,2.144c0,0.697,0.342,1.313,0.861,1.705h-6.915c-1.213,0-2.205,0.992-2.205,2.205  s0.992,2.205,2.205,2.205h50.771c1.213,0,2.205-0.992,2.205-2.205s-0.992-2.205-2.205-2.205h-7.082  c0.519-0.392,0.861-1.008,0.861-1.705c0-1.179-0.965-2.144-2.144-2.144H53.666V35.078c0.93-1.241,1.655-3.095,2.052-5.296  c3.301-0.657,7.029-0.14,9.939,1.549c2.882,1.673,4.973,4.252,7.718,6.09c1.076,0.72,2.326,1.336,3.64,1.782L63.327,60.724  l-0.824-0.029c-0.457-0.016-0.815,0.382-0.766,0.836c0.548,5.033,7.389,9.209,15.891,9.509c8.503,0.3,15.621-3.381,16.523-8.364  C94.232,62.227,93.903,61.805,93.446,61.789z M33.83,46.273l-23.504-0.706l12.352-19.651L33.83,46.273z M66.224,60.827  l12.457-19.586l11.043,20.416L66.224,60.827z"/><text x="0" y="115" fill="#000000" font-size="5px" font-weight="bold" font-family="'Helvetica Neue', Helvetica, Arial-Unicode, Arial, Sans-serif">Created by Alina Oleynik</text><text x="0" y="120" fill="#000000" font-size="5px" font-weight="bold" font-family="'Helvetica Neue', Helvetica, Arial-Unicode, Arial, Sans-serif">from the Noun Project</text></svg>