<svg xmlns="http://www.w3.org/2000/svg" xmlns:xlink="http://www.w3.org/1999/xlink" version="1.1" x="0px" y="0px" viewBox="0 0 173.228 221.215" style="enable-background:new 0 0 173.228 176.972;" xml:space="preserve"><g><path d="M111.393,94.845c-0.178,0-0.354-0.005-0.533-0.014c-3.48-0.181-15.356-1.022-22.422-4.251l-0.806-0.368v4.82h85.595v-9   h-51.653C120.849,91.045,116.549,94.845,111.393,94.845z"/><path d="M82.241,6.531h80.653v51.004h-63.87c0.091,0.265,0.172,0.536,0.242,0.812c0.414,1.636,0.807,3.367,1.179,5.187h1.949v9.666   c3.251,0.553,6.959,0.926,9.532,1.061c4.185,0.221,7.656,2.928,9.071,6.608h21.729v-6.667h-10.332V63.533h36.5v-63H74.778   C77.639,2.036,80.173,4.08,82.241,6.531z"/><path d="M77.13,32.065c0.235-0.014,0.479-0.021,0.733-0.021c1.368,0,3.313,0.225,5.356,0.892c1.637-3.12,2.568-6.669,2.568-10.437   c0-12.427-10.072-22.5-22.5-22.5c-12.426,0-22.5,10.073-22.5,22.5c0,3.421,0.767,6.662,2.133,9.565H77.13z"/><path d="M56.667,39.472c12.683,0,23,10.317,23,23v48.5H89c6.755,0,12.25,5.495,12.25,12.25c0,2.38-0.693,4.595-1.872,6.477   l14.951,37.917c1.9,4.819,6.515,7.761,11.399,7.76c1.495,0,3.016-0.275,4.49-0.856c6.294-2.482,9.384-9.596,6.902-15.89   l-20.438-51.834c-1.845-4.681-6.365-7.757-11.396-7.757H87.633h-2.3V67.816c0.713,0.406,1.491,0.691,2.3,0.866v2.357v16.645   l1.762,0.805c6.873,3.141,19.18,3.921,21.577,4.046c0.142,0.007,0.281,0.011,0.422,0.011c4.226,0,7.757-3.313,7.98-7.581   c0.231-4.411-3.158-8.175-7.568-8.408c-3.257-0.172-8.089-0.692-11.769-1.459c-0.813-6.09-1.818-11.518-3-16.187   C91.37,36.51,81.838,34.081,77.198,34.365H39.106c-2.023-0.073-5.237,0.303-8.758,2.633c-0.332,0.22-0.667,0.457-1.004,0.713   c-0.693,0.526-1.353,1.127-1.998,1.762H56.667z"/><path d="M78.896,165.472H56.543c0.005-0.125,0.019-0.248,0.019-0.375v-32.625h0.104H89c5.087,0,9.25-4.162,9.25-9.25v0   c0-5.087-4.163-9.25-9.25-9.25H76.59c0.038-0.497,0.076-0.994,0.076-1.5v-50c0-11-9-20-20-20H20c-11,0-20,9-20,20v50   c0,11,9,20,20,20h18.063v32.625c0,0.127,0.014,0.25,0.019,0.375H15.729c-3.163,0-5.75,2.588-5.75,5.75v0   c0,3.162,2.587,5.75,5.75,5.75h63.167c3.163,0,5.75-2.587,5.75-5.75v0C84.646,168.06,82.059,165.472,78.896,165.472z"/></g><text x="0" y="191.972" fill="#000000" font-size="5px" font-weight="bold" font-family="'Helvetica Neue', Helvetica, Arial-Unicode, Arial, Sans-serif">Created by Gan Khoon Lay</text><text x="0" y="196.972" fill="#000000" font-size="5px" font-weight="bold" font-family="'Helvetica Neue', Helvetica, Arial-Unicode, Arial, Sans-serif">from the Noun Project</text></svg>