<svg xmlns="http://www.w3.org/2000/svg" xmlns:xlink="http://www.w3.org/1999/xlink" viewBox="0 0 24 30" version="1.1" x="0px" y="0px"><title>icon/santa-solid</title><desc>Created with Sketch.</desc><g stroke="none" stroke-width="1" fill="none" fill-rule="evenodd"><path d="M20,4 C19.546,4 19.133,4.157 18.797,4.412 C17.947,3.547 16.476,3 15,3 C9,3 4,7.844 4,14 L17,14 C17,11 16,11 16,9 C16,7.425 16.624,5.855 18.079,5.473 C18.033,5.642 18,5.816 18,6 C18,7.104 18.896,8 20,8 C21.104,8 22,7.104 22,6 C22,4.896 21.104,4 20,4 M17,21 L4,21 C3.447,21 3,20.553 3,20 L3,17 C3,16.447 3.447,16 4,16 L17,16 C17.553,16 18,16.447 18,17 L18,20 C18,20.553 17.553,21 17,21" fill="#000000"/></g><text x="0" y="39" fill="#000000" font-size="5px" font-weight="bold" font-family="'Helvetica Neue', Helvetica, Arial-Unicode, Arial, Sans-serif">Created by Travis Avery</text><text x="0" y="44" fill="#000000" font-size="5px" font-weight="bold" font-family="'Helvetica Neue', Helvetica, Arial-Unicode, Arial, Sans-serif">from the Noun Project</text></svg>