<svg xmlns="http://www.w3.org/2000/svg" xmlns:xlink="http://www.w3.org/1999/xlink" version="1.1" x="0px" y="0px" viewBox="0 0 110 137.5" enable-background="new 0 0 110 110" xml:space="preserve"><g><path d="M105.973,35.835c-2.444-6.499-17.536-7.18-36.891-2.576c-0.001,0-0.001,0-0.001,0c-0.018,0.004-0.036,0.01-0.054,0.014   c-1.553,0.37-3.131,0.772-4.732,1.21c-0.015,0.004-0.03,0.008-0.045,0.012c-1.61,0.44-3.243,0.913-4.896,1.421   c-0.018,0.005-0.036,0.011-0.054,0.017c-1.651,0.508-3.32,1.048-5.004,1.624c-0.018,0.006-0.035,0.012-0.053,0.019   c-1.689,0.577-3.393,1.187-5.107,1.832c-0.87,0.327-1.733,0.659-2.587,0.996c-0.433,0.171-0.858,0.346-1.288,0.518   c-0.414,0.167-0.831,0.331-1.24,0.5c-0.611,0.251-1.212,0.507-1.814,0.763c-0.216,0.092-0.437,0.182-0.652,0.274   c-0.739,0.317-1.468,0.639-2.191,0.961c-0.07,0.031-0.142,0.062-0.212,0.093c-3.182,1.425-6.212,2.902-9.069,4.411   c-0.001,0.001-0.002,0.001-0.003,0.002l0,0C12.487,57.213,1.584,67.667,4.027,74.165c2.443,6.498,17.536,7.179,36.89,2.575   c0,0,0,0.001,0.001,0.001c0.808,0.524,1.646,1.005,2.512,1.438c3.483,1.742,7.41,2.728,11.57,2.728   c10.829,0,20.103-6.647,23.974-16.082c0.366-0.893,0.681-1.811,0.947-2.749l0,0C97.513,52.789,108.417,42.334,105.973,35.835z    M80.891,54.346L80.891,54.346c-0.02-0.79-0.072-1.572-0.161-2.343c-0.497-4.312-2.051-8.3-4.398-11.701   c-6.972,0.603-15.681,2.742-24.569,6.085c-9.741,3.663-17.347,7.861-22.489,11.628c0.5,4.306,2.052,8.288,4.396,11.684   c0.444,0.644,0.915,1.268,1.414,1.867c0,0,0,0.001,0.001,0.001c-8.232,0.9-14.066-0.157-15.262-3.34   c-1.197-3.184,2.498-7.824,9.288-12.572c0,0,0,0,0,0c2.767-1.935,6.049-3.887,9.725-5.766c0.028-0.015,0.056-0.029,0.084-0.043   c0.863-0.44,1.75-0.875,2.654-1.306c0.1-0.047,0.2-0.095,0.3-0.143c0.874-0.413,1.767-0.821,2.676-1.223   c0.13-0.058,0.261-0.115,0.392-0.172c0.911-0.398,1.836-0.792,2.779-1.177c0.112-0.045,0.225-0.09,0.337-0.136   c0.985-0.399,1.983-0.792,3-1.175c1.02-0.384,2.034-0.747,3.041-1.096c0.11-0.038,0.22-0.078,0.33-0.116   c0.972-0.334,1.935-0.651,2.891-0.953c0.124-0.04,0.249-0.079,0.373-0.118c0.963-0.301,1.917-0.587,2.859-0.855   c0.09-0.025,0.179-0.05,0.268-0.076c5.123-1.446,9.92-2.409,14.098-2.865c0,0-0.001-0.001-0.001-0.001   c8.231-0.9,14.065,0.159,15.262,3.341C91.375,44.957,87.681,49.599,80.891,54.346z"/><path d="M66.569,31.82c-3.483-1.742-7.41-2.728-11.569-2.728c-10.845,0-20.127,6.666-23.989,16.121   c5.531-2.825,11.455-5.436,17.421-7.679C54.585,35.222,60.708,33.304,66.569,31.82z"/></g><text x="0" y="125" fill="#000000" font-size="5px" font-weight="bold" font-family="'Helvetica Neue', Helvetica, Arial-Unicode, Arial, Sans-serif">Created by Trevor Dsouza</text><text x="0" y="130" fill="#000000" font-size="5px" font-weight="bold" font-family="'Helvetica Neue', Helvetica, Arial-Unicode, Arial, Sans-serif">from the Noun Project</text></svg>