<svg xmlns="http://www.w3.org/2000/svg" xmlns:xlink="http://www.w3.org/1999/xlink" version="1.1" x="0px" y="0px" viewBox="0 0 450 562.5" style="enable-background:new 0 0 450 450;" xml:space="preserve"><g><g><path d="M400.33,357.11H50.19c-2.76,0-5-2.24-5-5s2.24-5,5-5h350.13c2.76,0,5,2.24,5,5S403.09,357.11,400.33,357.11z     M282.61,269.92H50.19c-2.76,0-5-2.24-5-5s2.24-5,5-5h232.42c2.76,0,5,2.24,5,5S285.37,269.92,282.61,269.92z"/></g><g><path d="M112.29,250.79c-1.99,0-3.87-1.2-4.65-3.16c-7.11-17.96-24.81-30.04-44.03-30.04H50.19c-2.76,0-5-2.24-5-5s2.24-5,5-5    h13.42c23.29,0,44.72,14.61,53.33,36.35c1.02,2.57-0.24,5.47-2.81,6.49C113.52,250.68,112.9,250.79,112.29,250.79z"/></g><g><path d="M111.36,269.92c-2.73,0-4.96-2.2-5-4.94c-0.22-18.19,2.57-79.57,47.84-105.81c42.04-24.37,107.49-10.71,194.55,40.59    c0.05,0.03,0.1,0.06,0.15,0.09c1.6,1.02,39.3,25.07,54.97,40.74c1.95,1.95,1.95,5.12,0,7.07s-5.12,1.95-7.07,0    c-14.59-14.59-51.33-38.14-53.19-39.33c-45.41-26.75-84.99-43.13-117.63-48.7c-26.98-4.6-49.44-1.84-66.75,8.19    c-40.58,23.52-43.06,80.22-42.85,97.03c0.03,2.76-2.18,5.03-4.94,5.06C111.4,269.92,111.38,269.92,111.36,269.92z"/></g><g><path d="M77.97,219.62c-2.53,0-4.7-1.91-4.97-4.48c-0.15-1.4-0.22-2.82-0.22-4.22c0-22.13,18-40.13,40.13-40.13    c9.05,0,17.59,2.94,24.71,8.51c2.17,1.7,2.56,4.84,0.86,7.02c-1.7,2.17-4.84,2.56-7.02,0.86c-5.34-4.18-11.75-6.38-18.55-6.38    c-16.61,0-30.13,13.52-30.13,30.13c0,1.06,0.06,2.13,0.17,3.18c0.29,2.75-1.71,5.21-4.45,5.49    C78.32,219.61,78.14,219.62,77.97,219.62z"/></g><g><path d="M135.8,155.05h-34.21c-1.88,0-3.6-1.05-4.45-2.72s-0.7-3.68,0.4-5.2l23.8-32.99H96.9c-2.76,0-5-2.24-5-5s2.24-5,5-5h34.21    c1.88,0,3.6,1.05,4.45,2.72c0.85,1.67,0.7,3.68-0.4,5.2l-23.8,32.99h24.44c2.76,0,5,2.24,5,5S138.56,155.05,135.8,155.05z"/></g><g><path d="M170.41,113.72H152.6c-1.88,0-3.6-1.05-4.45-2.72c-0.85-1.67-0.7-3.68,0.4-5.2l9.66-13.39h-8.05c-2.76,0-5-2.24-5-5    s2.24-5,5-5h17.82c1.88,0,3.6,1.05,4.45,2.72c0.85,1.67,0.7,3.68-0.4,5.2l-9.66,13.39h8.05c2.76,0,5,2.24,5,5    C175.42,111.48,173.17,113.72,170.41,113.72z"/></g><g><path d="M282.61,327.84c-0.92,0-1.84-0.25-2.64-0.75c-1.47-0.91-2.36-2.52-2.36-4.25v-57.93c0-2.76,2.24-5,5-5h117.71    c2.33,0,4.34,1.6,4.87,3.87c0.53,2.26-0.58,4.59-2.66,5.62l-117.71,57.93C284.12,327.67,283.37,327.84,282.61,327.84z     M287.61,269.92v44.89l91.23-44.89L287.61,269.92L287.61,269.92z"/></g><g><path d="M207.02,93.53H189.2c-1.88,0-3.6-1.05-4.45-2.72c-0.85-1.67-0.7-3.68,0.4-5.2l9.65-13.39h-8.05c-2.76,0-5-2.24-5-5    s2.24-5,5-5h17.82c1.88,0,3.6,1.05,4.45,2.72c0.85,1.67,0.7,3.68-0.4,5.2l-9.65,13.39h8.05c2.76,0,5,2.24,5,5    S209.78,93.53,207.02,93.53z"/></g><g><path d="M44.47,389.26H14.99c-5.92,0-10.73-4.81-10.73-10.73V109.72c0-5.92,4.81-10.73,10.73-10.73h29.48    c5.92,0,10.73,4.81,10.73,10.73v268.81C55.19,384.44,50.38,389.26,44.47,389.26z M14.99,108.99c-0.39,0-0.73,0.34-0.73,0.73    v268.81c0,0.39,0.34,0.73,0.73,0.73h29.48c0.39,0,0.73-0.34,0.73-0.73V109.72c0-0.39-0.34-0.73-0.73-0.73H14.99z"/></g><g><path d="M435.53,389.26h-29.48c-5.92,0-10.73-4.81-10.73-10.73V187.81c0-5.92,4.81-10.73,10.73-10.73h29.48    c5.92,0,10.73,4.81,10.73,10.73v190.72C446.26,384.44,441.45,389.26,435.53,389.26z M406.05,187.08c-0.39,0-0.73,0.34-0.73,0.73    v190.72c0,0.39,0.34,0.73,0.73,0.73h29.48c0.39,0,0.73-0.34,0.73-0.73V187.81c0-0.39-0.34-0.73-0.73-0.73H406.05z"/></g></g><text x="0" y="465" fill="#000000" font-size="5px" font-weight="bold" font-family="'Helvetica Neue', Helvetica, Arial-Unicode, Arial, Sans-serif">Created by SAM Designs</text><text x="0" y="470" fill="#000000" font-size="5px" font-weight="bold" font-family="'Helvetica Neue', Helvetica, Arial-Unicode, Arial, Sans-serif">from the Noun Project</text></svg>