<svg xmlns="http://www.w3.org/2000/svg" xmlns:xlink="http://www.w3.org/1999/xlink" version="1.0" x="0px" y="0px" viewBox="0 0 123 153.75" enable-background="new 0 0 123 123" xml:space="preserve"><path fill-rule="evenodd" clip-rule="evenodd" d="M67.2,13.7c3.3,10.1,6.5,20.3,9.8,30.4c12.2,0,24.5,0,36.7-0.1  c10.9-0.2,12,1.7,3.6,7.7c-10.2,7.4-20.4,14.8-30.6,22.1c4.2,12.8,8.4,25.6,12.5,38.4c1.9,6.3-2.5,5.8-6,3.3  C82.7,107.8,72,100,61.4,92.3c-9.9,7.2-19.8,14.4-29.6,21.6c-8.3,5.8-10.7,4.8-7-5.5c3.8-11.5,7.5-23,11.3-34.5  c-10.1-7.3-20.3-14.7-30.4-22c-8.3-6.2-7.8-7.7,3.8-7.9c12.1,0,24.1,0,36.2,0.1c3.2-9.9,6.4-19.8,9.6-29.7  C59.4,2.8,63.4,3,67.2,13.7z"/><text x="0" y="138" fill="#000000" font-size="5px" font-weight="bold" font-family="'Helvetica Neue', Helvetica, Arial-Unicode, Arial, Sans-serif">Created by Elisabeta</text><text x="0" y="143" fill="#000000" font-size="5px" font-weight="bold" font-family="'Helvetica Neue', Helvetica, Arial-Unicode, Arial, Sans-serif">from the Noun Project</text></svg>