<svg xmlns="http://www.w3.org/2000/svg" viewBox="0 0 96 120" x="0px" y="0px"><title>Artboard 34</title><g><path d="M72,40H38a1.94,1.94,0,0,0-.7422.1445l-19.166,7.6641-7.1973-3.5977A2.0278,2.0278,0,0,0,10,44H6a1.9988,1.9988,0,0,0-2,2V74a1.9988,1.9988,0,0,0,2,2h4a2.0278,2.0278,0,0,0,.8945-.2109l7.1973-3.5977,19.166,7.6641A1.94,1.94,0,0,0,38,80H72a20,20,0,0,0,0-40ZM40,64a4,4,0,1,1,4-4A4.004,4.004,0,0,1,40,64Zm16,0a4,4,0,1,1,4-4A4.004,4.004,0,0,1,56,64Zm16,0a4,4,0,1,1,4-4A4.004,4.004,0,0,1,72,64Z"/><path d="M64,30a1.9988,1.9988,0,0,0-2-2H56V24a4.004,4.004,0,0,1,4-4h2a2,2,0,0,0,0-4H60a8.0091,8.0091,0,0,0-8,8v4H46a1.9988,1.9988,0,0,0-2,2v6H64Z"/></g><text x="0" y="111" fill="#000000" font-size="5px" font-weight="bold" font-family="'Helvetica Neue', Helvetica, Arial-Unicode, Arial, Sans-serif">Created by Deemak Daksina</text><text x="0" y="116" fill="#000000" font-size="5px" font-weight="bold" font-family="'Helvetica Neue', Helvetica, Arial-Unicode, Arial, Sans-serif">from the Noun Project</text></svg>