<svg xmlns="http://www.w3.org/2000/svg" xmlns:xlink="http://www.w3.org/1999/xlink" version="1.1" x="0px" y="0px" viewBox="0 0 100 125" style="enable-background:new 0 0 100 100;" xml:space="preserve"><path d="M94,12.1h-88c-1.2,0-2.2,1-2.2,2.2v54.2c0,1.2,1,2.2,2.2,2.2h36.4l-2.2,14.9h19.4l-2.2-14.9h36.4c1.2,0,2.2-1,2.2-2.2V14.2  C96,13,95.2,12.1,94,12.1z M89.5,65.6H10.2V17.1h79.4V65.6z M36.2,86.4h27.8v1.6H36.2V86.4z M50,54.5c-1,0-1.8-0.8-1.8-1.8l0,0  c0-1,0.8-1.8,1.8-1.8l0,0c1,0,1.8,0.8,1.8,1.8l0,0C51.8,53.7,51,54.5,50,54.5L50,54.5L50,54.5z M55.5,52.2c-1.4-1.4-1.4-3.9,0-5.3  l0,0c1.6-1.4,3.9-1.4,5.3,0l0,0c1.4,1.6,1.4,3.9,0,5.3l0,0c-0.8,0.8-1.8,1.2-2.7,1.2l0,0C57.1,53.1,56.3,52.9,55.5,52.2z M40.9,50.6  L40.9,50.6c-0.6-0.8-0.6-1.8,0-2.5l0,0c0.6-0.6,1.8-0.6,2.3,0l0,0c0.6,0.6,0.6,1.8,0,2.3l0,0C42.8,50.8,42.4,51,42,51l0,0  C41.6,51.2,41.2,51,40.9,50.6z M61.4,44.9c-2,0-3.3-1.6-3.3-3.5l0,0l0,0l0,0c0-2,1.6-3.3,3.5-3.3l0,0c2,0,3.5,1.6,3.3,3.5l0,0  C64.9,43.4,63.3,44.9,61.4,44.9L61.4,44.9C61.6,44.9,61.6,44.9,61.4,44.9z M37.1,41.4c0-1,0.8-1.8,1.8-1.8l0,0c1,0,1.8,0.8,1.8,1.8  l0,0c0,1-0.8,1.8-1.8,1.8l0,0C37.9,43,37.1,42.2,37.1,41.4z M63.3,41.4L63.3,41.4L63.3,41.4L63.3,41.4z M56.3,35.3L56.3,35.3  L56.3,35.3c-1.2-1.2-1-2.9,0-3.9l0,0c1.2-1.2,2.9-1,3.9,0l0,0c1.2,1.2,1,2.9,0,3.9l0,0c-0.6,0.6-1.2,0.8-2,0.8l0,0  C57.5,36.1,56.9,35.9,56.3,35.3z M40.9,34.6c-0.6-0.6-0.6-1.8,0-2.3l0,0c0.6-0.6,1.8-0.6,2.3,0l0,0c0.6,0.6,0.6,1.8,0,2.5l0,0  c-0.4,0.4-0.8,0.6-1.2,0.6l0,0C41.6,35.1,41.2,34.9,40.9,34.6z M50.2,31.8L50.2,31.8L50.2,31.8L50.2,31.8L50.2,31.8L50.2,31.8  L50.2,31.8c-1,0-1.8-0.8-1.8-1.8l0,0c0-1,0.8-1.8,1.8-1.8l0,0l0,0l0,0l0,0l0,0c1,0,1.8,0.8,1.8,1.8l0,0C52,31,51.2,31.8,50.2,31.8  L50.2,31.8L50.2,31.8z"/><text x="0" y="115" fill="#000000" font-size="5px" font-weight="bold" font-family="'Helvetica Neue', Helvetica, Arial-Unicode, Arial, Sans-serif">Created by SlideGenius</text><text x="0" y="120" fill="#000000" font-size="5px" font-weight="bold" font-family="'Helvetica Neue', Helvetica, Arial-Unicode, Arial, Sans-serif">from the Noun Project</text></svg>