<svg xmlns="http://www.w3.org/2000/svg" data-name="Layer 1" viewBox="0 0 100 125" x="0px" y="0px"><title>BasicUI_50Icon_10px_grid</title><path d="M93.61,74.95,76.25,44.87,58.88,14.8a10.26,10.26,0,0,0-17.76,0L23.75,44.87,6.39,74.95a10.26,10.26,0,0,0,8.88,15.38H84.73A10.26,10.26,0,0,0,93.61,74.95ZM89.28,82.7a5.16,5.16,0,0,1-4.55,2.63H15.27a5.26,5.26,0,0,1-4.55-7.88L28.08,47.37,45.45,17.3a5.26,5.26,0,0,1,9.1,0L71.92,47.37,89.28,77.45A5.16,5.16,0,0,1,89.28,82.7Z"/><rect x="46.74" y="69.48" width="6.52" height="6.52"/><polygon points="44.34 42.93 46.78 66.06 53.22 66.06 55.66 42.93 55.66 38.07 44.34 38.07 44.34 42.93"/><text x="0" y="115" fill="#000000" font-size="5px" font-weight="bold" font-family="'Helvetica Neue', Helvetica, Arial-Unicode, Arial, Sans-serif">Created by manmanc</text><text x="0" y="120" fill="#000000" font-size="5px" font-weight="bold" font-family="'Helvetica Neue', Helvetica, Arial-Unicode, Arial, Sans-serif">from the Noun Project</text></svg>