<svg xmlns="http://www.w3.org/2000/svg" xmlns:xlink="http://www.w3.org/1999/xlink" version="1.1" x="0px" y="0px" viewBox="0 0 90 112.5" enable-background="new 0 0 90 90" xml:space="preserve"><path d="M46.908,20.021l6.09,2.156c-0.647,0.969-1.199,1.902-1.787,4.095c-0.365,1.295,1.594,1.833,1.932,0.525  c0.74-2.755,1.246-3.87,1.751-4.354c2.167-2.084,4.899-2.527,7.155-1.646c2.25,0.874,4.078,3.063,4.287,6.729l0.443,7.724  c0.129,2.188-0.173,3.563-0.781,4.588c-0.609,1.032-1.595,1.808-3.063,2.663c-1.62,0.932-3.989,1.17-6.016,0.609  c-2.03-0.563-3.651-1.824-4.187-3.819c-1.1-4.099,0.307-6.749,2.364-8.015c2.057-1.267,4.838-1.131,6.891,0.921  c0.948,0.907,2.323-0.469,1.421-1.416c-2.676-2.677-6.546-2.944-9.364-1.209c-2.817,1.729-4.521,5.485-3.246,10.24  c0.746,2.781,3.052,4.521,5.59,5.224c2.53,0.703,5.385,0.506,7.551-0.803c1.818-1.104,3.099-2.265,4.015-3.822l4.338,7.546  c0.787,1.371,0.48,2.59,0.048,3.954l-4.808,15.146c-0.438,1.375-1.099,2.187-2.125,2.692c-1.025,0.505-2.509,0.683-4.536,0.402  l-13.265-1.85c-1.803-0.25-3.486-2.052-3.511-3.828c-0.016-0.875,0.208-1.85,0.64-2.812c0.912,0.238,1.891,0.343,2.922,0.343  c2.037,0,4.052-0.427,5.656-1.416c0.599-0.364,1.136-0.828,1.574-1.369h6.083c1.328-0.011,1.328-2,0-2.011h-5.063  c0.12-0.442,0.188-0.912,0.188-1.401l-0.005-7.552c0.084-1.412-2.083-1.412-2,0v7.552c0,1.432-0.656,2.36-1.823,3.079  c-1.172,0.719-2.865,1.115-4.609,1.115c-1.745,0-3.172-0.365-4.13-1.043c-0.963-0.676-1.558-1.646-1.683-3.233l-1.566-19.553  c-0.121-1.462-2.074-0.828-1.995,0.163l1.566,19.557c0.114,1.468-0.129,2.796-1.505,3.53c-0.963,0.517-2.285,0.792-3.64,0.792  c-1.495,0-2.62-0.323-3.401-0.896c-0.782-0.573-1.301-1.412-1.52-2.797l-2.459-15.448c-0.26-1.615-2.188-1-1.98,0.308l2.262,14.234  c-1.662,0.864-3.438,1.083-4.814,0.667c-1.462-0.448-2.546-1.5-2.89-3.611l-2.552-15.697c-0.317-1.948,0.032-3.079,0.724-3.85  c0.693-0.775,1.901-1.275,3.552-1.494l3.402-0.448c0.303-0.042,0.567-0.213,0.724-0.473l2.546-4.193  c0.652-1.072,1.579-1.427,3.047-1.234l5.281,0.703c0.319,0.041,0.636-0.074,0.855-0.303l4.636-4.87  C43.517,19.338,45.252,19.433,46.908,20.021z M40.664,19.427l-4.282,4.506l-4.77-0.636c-2.005-0.266-3.97,0.437-5.027,2.177  l-2.297,3.781l-2.933,0.391c-1.91,0.255-3.62,0.855-4.775,2.14c-1.151,1.287-1.589,3.172-1.208,5.505l2.552,15.704  c0.448,2.729,2.167,4.557,4.281,5.203c1.817,0.557,3.869,0.323,5.776-0.536c0.374,1.391,1.099,2.515,2.131,3.276  c1.233,0.905,2.817,1.276,4.593,1.276c1.615,0,3.219-0.308,4.568-1.021c0.771-0.402,1.453-0.968,1.968-1.667  c0.491,0.625,1.047,0.995,1.636,1.385c-0.521,1.182-0.808,2.407-0.792,3.593c0.046,2.912,2.412,5.391,5.25,5.786l13.265,1.845  c2.26,0.317,4.161,0.172,5.692-0.583c1.532-0.756,2.595-2.131,3.152-3.891l4.807-15.146c0.458-1.454,0.953-3.5-0.224-5.552  l-5.307-9.239c0.093-0.781,0.115-1.636,0.058-2.584l-0.443-7.724c-0.246-4.307-2.568-7.323-5.557-8.49  c-2.688-1.051-5.808-0.422-8.371,1.558l-6.828-2.35C45.175,17.286,42.424,17.573,40.664,19.427z"/><text x="0" y="105" fill="#000000" font-size="5px" font-weight="bold" font-family="'Helvetica Neue', Helvetica, Arial-Unicode, Arial, Sans-serif">Created by Cuputo</text><text x="0" y="110" fill="#000000" font-size="5px" font-weight="bold" font-family="'Helvetica Neue', Helvetica, Arial-Unicode, Arial, Sans-serif">from the Noun Project</text></svg>